<svg width="100" height="100" viewBox="0 0 100 100" fill="none" xmlns="http://www.w3.org/2000/svg">
    <g id="mongoose">
        <g id="mongoose_2">
            <path id="Vector" d="M97.7327 46.5485C97.6992 46.0463 97.5821 45.5693 97.3812 45.1174C97.1971 44.6655 96.9377 44.2805 96.6029 43.9625C96.2849 43.6278 95.8999 43.3683 95.448 43.1842C95.0129 42.9834 94.5275 42.883 93.9919 42.883C93.4395 42.883 92.9374 42.9834 92.4855 43.1842C92.0503 43.3683 91.6737 43.6278 91.3557 43.9625C91.0377 44.2973 90.7866 44.6906 90.6025 45.1425C90.4184 45.5777 90.3096 46.0463 90.2762 46.5485H97.7327ZM99.7914 50.1637C99.5069 51.6199 98.8792 52.7162 97.9084 53.4527C96.9377 54.1891 95.7158 54.5573 94.2429 54.5573C93.2052 54.5573 92.3014 54.39 91.5315 54.0552C90.7783 53.7205 90.1423 53.2518 89.6234 52.6493C89.1045 52.0467 88.7112 51.327 88.4434 50.4901C88.1923 49.6533 88.0501 48.7411 88.0166 47.7536C88.0166 46.766 88.1672 45.8622 88.4685 45.0421C88.7698 44.222 89.1882 43.5106 89.7238 42.9081C90.2762 42.3055 90.9206 41.8369 91.657 41.5021C92.4102 41.1674 93.2303 41 94.1174 41C95.2723 41 96.2263 41.2427 96.9795 41.7281C97.7494 42.1967 98.3603 42.7993 98.8123 43.5357C99.2809 44.2722 99.5989 45.0756 99.7663 45.9459C99.9504 46.8163 100.026 47.6448 99.9922 48.4314H90.2762C90.2594 49.0005 90.3264 49.5445 90.477 50.0633C90.6276 50.5654 90.8703 51.0174 91.2051 51.4191C91.5398 51.804 91.9666 52.1137 92.4855 52.348C93.0044 52.5823 93.6153 52.6995 94.3183 52.6995C95.2221 52.6995 95.9585 52.4903 96.5276 52.0718C97.1134 51.6534 97.4984 51.0174 97.6825 50.1637H99.7914Z" fill="#880000"/>
            <path id="Vector_2" d="M79.8797 50.1889C79.8965 50.6575 80.0053 51.0592 80.2061 51.394C80.407 51.712 80.6664 51.9714 80.9844 52.1722C81.3192 52.3564 81.6874 52.4903 82.0891 52.5739C82.5075 52.6576 82.9343 52.6995 83.3695 52.6995C83.7043 52.6995 84.0557 52.6744 84.424 52.6242C84.7922 52.5739 85.1269 52.4819 85.4282 52.348C85.7462 52.2141 86.0057 52.0216 86.2065 51.7705C86.4074 51.5027 86.5078 51.168 86.5078 50.7663C86.5078 50.214 86.2986 49.7955 85.8801 49.511C85.4617 49.2265 84.9345 49.0005 84.2984 48.8331C83.6792 48.649 83.0013 48.49 82.2648 48.3561C81.5284 48.2055 80.8422 48.0046 80.2061 47.7536C79.5868 47.4858 79.068 47.1175 78.6495 46.6489C78.2311 46.1802 78.0219 45.5275 78.0219 44.6906C78.0219 44.0378 78.1642 43.4771 78.4487 43.0085C78.75 42.5398 79.1266 42.1633 79.5785 41.8787C80.0471 41.5774 80.566 41.3599 81.1351 41.226C81.7209 41.0753 82.2983 41 82.8674 41C83.6038 41 84.2817 41.0669 84.901 41.2008C85.5203 41.318 86.0642 41.5356 86.5329 41.8536C87.0183 42.1549 87.4032 42.5733 87.6878 43.1089C87.9723 43.6278 88.1397 44.2805 88.1899 45.0672H86.0559C86.0224 44.6488 85.9136 44.3056 85.7295 44.0378C85.5454 43.7533 85.3111 43.5274 85.0265 43.36C84.742 43.1926 84.424 43.0754 84.0725 43.0085C83.7377 42.9248 83.3946 42.883 83.0431 42.883C82.7251 42.883 82.3987 42.9081 82.064 42.9583C81.746 43.0085 81.4531 43.1005 81.1853 43.2344C80.9175 43.3516 80.6999 43.519 80.5325 43.7366C80.3651 43.9374 80.2814 44.2052 80.2814 44.54C80.2814 44.9082 80.407 45.2178 80.658 45.4689C80.9258 45.7032 81.2606 45.9041 81.6623 46.0714C82.064 46.2221 82.5159 46.356 83.018 46.4731C83.5201 46.5736 84.0223 46.6824 84.5244 46.7995C85.06 46.9167 85.5788 47.059 86.081 47.2263C86.5998 47.3937 87.0517 47.6197 87.4367 47.9042C87.8384 48.172 88.1564 48.5151 88.3907 48.9335C88.6418 49.352 88.7673 49.8708 88.7673 50.4901C88.7673 51.2768 88.6 51.9295 88.2652 52.4484C87.9472 52.9673 87.5204 53.3857 86.9848 53.7037C86.4659 54.0217 85.8718 54.2393 85.2023 54.3565C84.5495 54.4904 83.8967 54.5573 83.244 54.5573C82.5243 54.5573 81.838 54.482 81.1853 54.3314C80.5325 54.1807 79.9551 53.938 79.4529 53.6033C78.9508 53.2518 78.5491 52.7999 78.2478 52.2476C77.9466 51.6785 77.7792 50.9923 77.7457 50.1889H79.8797Z" fill="#880000"/>
            <path id="Vector_3" d="M68.1219 47.8038C68.1219 48.5904 68.2223 49.2934 68.4231 49.9127C68.6407 50.5152 68.9336 51.0257 69.3018 51.4442C69.6701 51.8459 70.0969 52.1555 70.5823 52.3731C71.0844 52.5907 71.6116 52.6995 72.1639 52.6995C72.7163 52.6995 73.2351 52.5907 73.7205 52.3731C74.2227 52.1555 74.6578 51.8459 75.026 51.4442C75.3943 51.0257 75.6788 50.5152 75.8797 49.9127C76.0972 49.2934 76.206 48.5904 76.206 47.8038C76.206 47.0171 76.0972 46.3225 75.8797 45.72C75.6788 45.1007 75.3943 44.5818 75.026 44.1634C74.6578 43.7449 74.2227 43.4269 73.7205 43.2093C73.2351 42.9918 72.7163 42.883 72.1639 42.883C71.6116 42.883 71.0844 42.9918 70.5823 43.2093C70.0969 43.4269 69.6701 43.7449 69.3018 44.1634C68.9336 44.5818 68.6407 45.1007 68.4231 45.72C68.2223 46.3225 68.1219 47.0171 68.1219 47.8038ZM65.8623 47.8038C65.8623 46.8497 65.9962 45.9627 66.264 45.1425C66.5318 44.3056 66.9335 43.5859 67.4691 42.9834C68.0047 42.3641 68.6658 41.8787 69.4525 41.5272C70.2391 41.1757 71.143 41 72.1639 41C73.2017 41 74.1055 41.1757 74.8754 41.5272C75.6621 41.8787 76.3232 42.3641 76.8588 42.9834C77.3944 43.5859 77.7961 44.3056 78.0639 45.1425C78.3317 45.9627 78.4656 46.8497 78.4656 47.8038C78.4656 48.7578 78.3317 49.6449 78.0639 50.465C77.7961 51.2852 77.3944 52.0049 76.8588 52.6242C76.3232 53.2267 75.6621 53.7037 74.8754 54.0552C74.1055 54.39 73.2017 54.5573 72.1639 54.5573C71.143 54.5573 70.2391 54.39 69.4525 54.0552C68.6658 53.7037 68.0047 53.2267 67.4691 52.6242C66.9335 52.0049 66.5318 51.2852 66.264 50.465C65.9962 49.6449 65.8623 48.7578 65.8623 47.8038Z" fill="#880000"/>
            <path id="Vector_4" d="M56.1133 47.8038C56.1133 48.5904 56.2137 49.2934 56.4145 49.9127C56.6321 50.5152 56.925 51.0257 57.2932 51.4442C57.6615 51.8459 58.0883 52.1555 58.5737 52.3731C59.0758 52.5907 59.603 52.6995 60.1553 52.6995C60.7077 52.6995 61.2265 52.5907 61.7119 52.3731C62.2141 52.1555 62.6492 51.8459 63.0174 51.4442C63.3857 51.0257 63.6702 50.5152 63.8711 49.9127C64.0886 49.2934 64.1974 48.5904 64.1974 47.8038C64.1974 47.0171 64.0886 46.3225 63.8711 45.72C63.6702 45.1007 63.3857 44.5818 63.0174 44.1634C62.6492 43.7449 62.2141 43.4269 61.7119 43.2093C61.2265 42.9918 60.7077 42.883 60.1553 42.883C59.603 42.883 59.0758 42.9918 58.5737 43.2093C58.0883 43.4269 57.6615 43.7449 57.2932 44.1634C56.925 44.5818 56.6321 45.1007 56.4145 45.72C56.2137 46.3225 56.1133 47.0171 56.1133 47.8038ZM53.8537 47.8038C53.8537 46.8497 53.9876 45.9627 54.2554 45.1425C54.5232 44.3056 54.9249 43.5859 55.4605 42.9834C55.9961 42.3641 56.6572 41.8787 57.4439 41.5272C58.2305 41.1757 59.1344 41 60.1553 41C61.1931 41 62.0969 41.1757 62.8668 41.5272C63.6535 41.8787 64.3146 42.3641 64.8502 42.9834C65.3858 43.5859 65.7875 44.3056 66.0553 45.1425C66.3231 45.9627 66.457 46.8497 66.457 47.8038C66.457 48.7578 66.3231 49.6449 66.0553 50.465C65.7875 51.2852 65.3858 52.0049 64.8502 52.6242C64.3146 53.2267 63.6535 53.7037 62.8668 54.0552C62.0969 54.39 61.1931 54.5573 60.1553 54.5573C59.1344 54.5573 58.2305 54.39 57.4439 54.0552C56.6572 53.7037 55.9961 53.2267 55.4605 52.6242C54.9249 52.0049 54.5232 51.2852 54.2554 50.465C53.9876 49.6449 53.8537 48.7578 53.8537 47.8038Z" fill="#880000"/>
            <path id="Vector_5" d="M53.7449 53.1765C53.7449 55.3021 53.2595 56.8922 52.2888 57.9467C51.318 59.0011 49.7949 59.5283 47.7194 59.5283C47.1169 59.5283 46.4976 59.4614 45.8616 59.3275C45.2423 59.1936 44.6732 58.976 44.1544 58.6747C43.6522 58.3735 43.2338 57.9801 42.8991 57.4947C42.5643 57.0094 42.3802 56.4152 42.3467 55.7122H44.4808C44.4975 56.0972 44.6147 56.4236 44.8322 56.6914C45.0666 56.9592 45.3427 57.1767 45.6607 57.3441C45.9955 57.5115 46.3553 57.6286 46.7403 57.6956C47.1253 57.7793 47.4935 57.8211 47.845 57.8211C48.5479 57.8211 49.1421 57.6956 49.6275 57.4445C50.1129 57.2102 50.5146 56.8755 50.8326 56.4403C51.1506 56.0219 51.3766 55.5114 51.5105 54.9088C51.6611 54.3063 51.7364 53.6451 51.7364 52.9254V52.0718H51.6862C51.318 52.8752 50.7573 53.4694 50.0041 53.8544C49.2677 54.2226 48.481 54.4067 47.6441 54.4067C46.6734 54.4067 45.8281 54.2309 45.1084 53.8795C44.3887 53.528 43.7861 53.0593 43.3008 52.4735C42.8154 51.871 42.4472 51.1764 42.1961 50.3897C41.9618 49.5863 41.8446 48.7411 41.8446 47.854C41.8446 47.0841 41.945 46.2974 42.1459 45.494C42.3467 44.6739 42.6815 43.9374 43.1501 43.2847C43.6188 42.6152 44.2381 42.0712 45.008 41.6528C45.7779 41.2176 46.7236 41 47.845 41C48.6651 41 49.4183 41.1841 50.1045 41.5523C50.7908 41.9038 51.3264 42.4394 51.7113 43.1591H51.7364V41.3013H53.7449V53.1765ZM47.7697 52.5488C48.4726 52.5488 49.0668 52.4066 49.5522 52.122C50.0543 51.8208 50.456 51.4358 50.7573 50.9671C51.0586 50.4818 51.2762 49.9378 51.4101 49.3352C51.5607 48.7327 51.636 48.1302 51.636 47.5276C51.636 46.9585 51.5691 46.3978 51.4352 45.8455C51.3013 45.2932 51.0837 44.7994 50.7824 44.3642C50.4979 43.9123 50.1213 43.5525 49.6526 43.2847C49.184 43.0169 48.6149 42.883 47.9454 42.883C47.2592 42.883 46.6734 43.0169 46.188 43.2847C45.7026 43.5357 45.3009 43.8788 44.9829 44.314C44.6816 44.7492 44.4556 45.2513 44.305 45.8204C44.1711 46.3895 44.1042 46.9836 44.1042 47.6029C44.1042 48.1887 44.1627 48.7745 44.2799 49.3604C44.3971 49.9462 44.5979 50.4818 44.8825 50.9671C45.167 51.4358 45.5436 51.8208 46.0122 52.122C46.4809 52.4066 47.0667 52.5488 47.7697 52.5488Z" fill="#880000"/>
            <path id="Vector_6" d="M31.0047 41.3013H33.0132V43.36H33.0634C33.9505 41.7867 35.3564 41 37.2812 41C38.1349 41 38.8462 41.1172 39.4153 41.3515C39.9843 41.5858 40.4446 41.9122 40.7961 42.3306C41.1476 42.7491 41.3903 43.2512 41.5242 43.837C41.6748 44.4061 41.7501 45.0421 41.7501 45.7451V54.2812H39.6161V45.494C39.6161 44.6906 39.3818 44.0546 38.9131 43.5859C38.4445 43.1173 37.8001 42.883 36.98 42.883C36.3272 42.883 35.7581 42.9834 35.2727 43.1842C34.8041 43.3851 34.4108 43.6696 34.0928 44.0378C33.7747 44.4061 33.5321 44.8412 33.3647 45.3434C33.214 45.8288 33.1387 46.3644 33.1387 46.9502V54.2812H31.0047V41.3013Z" fill="#880000"/>
            <path id="Vector_7" d="M20.5528 47.8038C20.5528 48.5904 20.6533 49.2934 20.8541 49.9127C21.0717 50.5152 21.3646 51.0257 21.7328 51.4442C22.101 51.8459 22.5278 52.1555 23.0132 52.3731C23.5154 52.5907 24.0426 52.6995 24.5949 52.6995C25.1473 52.6995 25.6661 52.5907 26.1515 52.3731C26.6536 52.1555 27.0888 51.8459 27.457 51.4442C27.8252 51.0257 28.1098 50.5152 28.3106 49.9127C28.5282 49.2934 28.637 48.5904 28.637 47.8038C28.637 47.0171 28.5282 46.3225 28.3106 45.72C28.1098 45.1007 27.8252 44.5818 27.457 44.1634C27.0888 43.7449 26.6536 43.4269 26.1515 43.2093C25.6661 42.9918 25.1473 42.883 24.5949 42.883C24.0426 42.883 23.5154 42.9918 23.0132 43.2093C22.5278 43.4269 22.101 43.7449 21.7328 44.1634C21.3646 44.5818 21.0717 45.1007 20.8541 45.72C20.6533 46.3225 20.5528 47.0171 20.5528 47.8038ZM18.2933 47.8038C18.2933 46.8497 18.4272 45.9627 18.695 45.1425C18.9628 44.3056 19.3645 43.5859 19.9001 42.9834C20.4357 42.3641 21.0968 41.8787 21.8835 41.5272C22.6701 41.1757 23.5739 41 24.5949 41C25.6326 41 26.5365 41.1757 27.3064 41.5272C28.093 41.8787 28.7542 42.3641 29.2898 42.9834C29.8254 43.5859 30.2271 44.3056 30.4949 45.1425C30.7627 45.9627 30.8966 46.8497 30.8966 47.8038C30.8966 48.7578 30.7627 49.6449 30.4949 50.465C30.2271 51.2852 29.8254 52.0049 29.2898 52.6242C28.7542 53.2267 28.093 53.7037 27.3064 54.0552C26.5365 54.39 25.6326 54.5573 24.5949 54.5573C23.5739 54.5573 22.6701 54.39 21.8835 54.0552C21.0968 53.7037 20.4357 53.2267 19.9001 52.6242C19.3645 52.0049 18.9628 51.2852 18.695 50.465C18.4272 49.6449 18.2933 48.7578 18.2933 47.8038Z" fill="#880000"/>
            <path id="Vector_8" d="M0 41.3013H2.00849V43.2093H2.05871C3.02948 41.7364 4.42705 41 6.25144 41C7.05483 41 7.78291 41.1674 8.43567 41.5021C9.08843 41.8369 9.54871 42.4059 9.81651 43.2093C10.2517 42.5064 10.8208 41.9624 11.5237 41.5774C12.2434 41.1925 13.0301 41 13.8837 41C14.5365 41 15.1223 41.0753 15.6411 41.226C16.1767 41.3599 16.6286 41.5774 16.9969 41.8787C17.3818 42.18 17.6747 42.5733 17.8756 43.0587C18.0932 43.5274 18.202 44.0964 18.202 44.7659V54.2812H16.0679V45.7702C16.0679 45.3685 16.0345 44.9919 15.9675 44.6404C15.9006 44.2889 15.775 43.9876 15.5909 43.7366C15.4068 43.4688 15.1474 43.2596 14.8126 43.1089C14.4946 42.9583 14.0762 42.883 13.5573 42.883C12.5029 42.883 11.6744 43.1842 11.0718 43.7868C10.4693 44.3893 10.168 45.1927 10.168 46.197V54.2812H8.03397V45.7702C8.03397 45.3517 7.99213 44.9668 7.90844 44.6153C7.84149 44.2638 7.71596 43.9625 7.53185 43.7115C7.34774 43.4437 7.09668 43.2428 6.77866 43.1089C6.47739 42.9583 6.08406 42.883 5.59867 42.883C4.97939 42.883 4.44379 43.0085 3.99188 43.2596C3.55671 43.5106 3.19685 43.8119 2.91232 44.1634C2.64452 44.5149 2.44367 44.8831 2.30977 45.268C2.1926 45.6363 2.13402 45.9459 2.13402 46.197V54.2812H0V41.3013Z" fill="#880000"/>
        </g>
    </g>
</svg>
