<svg version="1.1" id="Layer_1" xmlns="http://www.w3.org/2000/svg" xmlns:xlink="http://www.w3.org/1999/xlink" x="0px"
     y="0px"
     width="100%" viewBox="0 0 512 512" enable-background="new 0 0 512 512" xml:space="preserve">

<path fill="#FFFFFF" opacity="1.000000" stroke="none"
      d="
M351.000000,513.000000 
	C234.028427,513.000000 117.556847,513.000000 1.042632,513.000000 
	C1.042632,342.403412 1.042632,171.806793 1.042632,1.105087 
	C171.554916,1.105087 342.109924,1.105087 512.832458,1.105087 
	C512.832458,171.666534 512.832458,342.333252 512.832458,513.000000 
	C459.140045,513.000000 405.320038,513.000000 351.000000,513.000000 
M196.695190,359.142181 
	C200.857864,306.889404 205.020538,254.636627 209.210312,202.043808 
	C230.619705,201.144928 251.703949,200.259689 273.257324,199.354752 
	C273.952606,168.817352 274.639954,138.627640 275.317841,108.853966 
	C196.800568,108.853966 119.092094,108.853966 41.235802,108.853966 
	C40.366840,142.919434 39.515148,176.307678 38.653217,210.097519 
	C60.277706,208.940903 81.292847,207.816864 102.522903,206.681351 
	C102.522903,274.945038 102.522903,342.484467 102.522903,410.351868 
	C132.790710,408.769745 162.690842,407.206879 192.826996,405.631653 
	C194.097092,390.213440 195.338959,375.137817 196.695190,359.142181 
M471.796478,338.244049 
	C473.170654,323.254578 474.544800,308.265076 475.943878,293.003845 
	C446.657959,293.003845 417.905487,293.003845 388.908813,293.003845 
	C390.953217,229.631760 398.669861,167.225693 404.671234,104.555962 
	C367.192322,104.555962 330.273834,104.555962 292.656036,104.555962 
	C290.373199,203.984863 288.095917,303.173309 285.811951,402.652435 
	C346.741974,397.852295 406.782501,393.122192 466.941925,388.382751 
	C468.563721,371.621674 470.134216,355.390900 471.796478,338.244049 
z">
</path>
    <path fill="currentColor" opacity="1.000000" stroke="black" stroke-width="7"
          d="
M196.638000,359.602173 
	C195.338959,375.137817 194.097092,390.213440 192.826996,405.631653 
	C162.690842,407.206879 132.790710,408.769745 102.522903,410.351868 
	C102.522903,342.484467 102.522903,274.945038 102.522903,206.681351 
	C81.292847,207.816864 60.277706,208.940903 38.653217,210.097519 
	C39.515148,176.307678 40.366840,142.919434 41.235802,108.853966 
	C119.092094,108.853966 196.800568,108.853966 275.317841,108.853966 
	C274.639954,138.627640 273.952606,168.817352 273.257324,199.354752 
	C251.703949,200.259689 230.619705,201.144928 209.210312,202.043808 
	C205.020538,254.636627 200.857864,306.889404 196.638000,359.602173 
z">

    </path>
    <path fill="currentColor" opacity="1.000000" stroke="black" stroke-width="7"
          d="
M471.750610,338.702087 
	C470.134216,355.390900 468.563721,371.621674 466.941925,388.382751 
	C406.782501,393.122192 346.741974,397.852295 285.811951,402.652435 
	C288.095917,303.173309 290.373199,203.984863 292.656036,104.555962 
	C330.273834,104.555962 367.192322,104.555962 404.671234,104.555962 
	C398.669861,167.225693 390.953217,229.631760 388.908813,293.003845 
	C417.905487,293.003845 446.657959,293.003845 475.943878,293.003845 
	C474.544800,308.265076 473.170654,323.254578 471.750610,338.702087 
z">
    </path>
</svg>